<?xml version="1.0" encoding="utf-8"?>
<!-- Generator: Adobe Illustrator 27.5.0, SVG Export Plug-In . SVG Version: 6.00 Build 0)  -->
<svg version="1.1" xmlns="http://www.w3.org/2000/svg" xmlns:xlink="http://www.w3.org/1999/xlink" x="0px" y="0px"
	 viewBox="0 0 500 500" style="enable-background:new 0 0 500 500;" xml:space="preserve">
<g id="BACKGROUND">
	<rect style="fill:#FFFFFF;" width="500" height="500"/>
</g>
<g id="OBJECTS">
	<g>
		<path style="fill:#F0EBFF;" d="M212.19,138.477c0,0-93.725-45.348-120.583,43.543c-26.857,88.891,27.343,85.035,112.411,112.578
			c85.068,27.543,46.589,88.139,128.912,74.648c82.323-13.491,116.001-122.14,52.435-176.033
			C321.798,139.321,293.127,175.072,212.19,138.477z"/>
		<g>
			<path style="fill:#2A1F3A;" d="M387.33,154.354c-7.517,2.958-18.646-0.531-23.092-5.887c-3.043-3.659-4.56-8.408-5.877-11.376
				c1.877-1.839,3.1-4.398,3.849-7.261c3.83,1.014,4.617,1.128,5.403-1.858c0.796-2.986-1.744-5.688-4.56-2.986
				c-2.247,0.901-15.992-5.346-19.149-14.361c-3.488,0.673-4.835,10.153-4.835,10.153s-0.114-3.621-3.157-7.669
				c-3.043-4.057-2.759-14.703,2.303-15.945c5.072-1.232,6.257,2.986,7.944,1.754c1.687-1.242,12.361-10.788,23.092-2.341
				c10.721,8.446,8.19,21.206,5.745,25.595c-2.455,4.389-2.455,6.844,2.948,8.029c5.413,1.175,9.631,4.048,7.603,10.892
				C383.529,147.936,384.704,153.425,387.33,154.354z"/>
			<g>
				<path style="fill:#2A1F3A;" d="M292.212,406.84c0,0,0.507,8.447-9.63,17.908c-10.137,9.461-9.968,11.15-10.474,14.867
					s15.543,2.365,23.314-3.379c7.771-5.744,18.246-6.758,17.739-9.968s-6.927-19.259-6.927-23.821"/>
				<path style="fill:#2A1F3A;" d="M357.511,383.247c0,0,5.556,6.383,3.297,20.064c-2.258,13.681-1.094,14.916,0.772,18.17
					c1.866,3.254,13.757-7.61,16.41-16.902s10.332-16.487,7.972-18.721c-2.36-2.234-17.239-11.032-20.022-14.646"/>
				<linearGradient id="SVGID_1_" gradientUnits="userSpaceOnUse" x1="312.5633" y1="304.397" x2="258.5009" y2="486.8573">
					<stop  offset="0" style="stop-color:#6B637C"/>
					<stop  offset="1" style="stop-color:#8A8593"/>
				</linearGradient>
				<path style="fill:url(#SVGID_1_);" d="M356.01,236.712l-6.437,10.21l-1.337,2.123l-22.277,37.842
					c0,0-13.309,26.04-12.276,45.237c0.01,0.246,0.019,0.483,0.038,0.72c0.36,4.91,0.199,11.632-0.237,19.016
					c-0.284,4.759-0.683,9.792-1.138,14.788c-1.583,17.575-3.839,34.695-3.972,37.823c-0.227,5.413-19.376,8.115-18.021,0
					c0.958-5.735-4-33.605-5.678-59.835c-0.682-10.854-0.815-21.433,0.275-30.041c1.232-9.773,5.735-22.58,11.195-35.311
					c7.707-17.992,17.319-35.852,22.334-44.848c2.114-3.782,3.413-6,3.413-6c2.806-4.939,28.789,0,28.789,0l2.171,3.365
					L356.01,236.712z"/>
				
					<linearGradient id="SVGID_00000062905080132659483510000009732450975451093684_" gradientUnits="userSpaceOnUse" x1="378.5512" y1="307.1553" x2="282.9296" y2="317.2919">
					<stop  offset="0" style="stop-color:#000000"/>
					<stop  offset="1" style="stop-color:#000000;stop-opacity:0"/>
				</linearGradient>
				<path style="opacity:0.45;fill:url(#SVGID_00000062905080132659483510000009732450975451093684_);" d="M313.721,332.845
					c0.36,4.91,0.199,11.632-0.237,19.016c-0.284,4.759-0.683,9.792-1.138,14.788c-6.683-3.868-14.883-2.645-16.248-12.854
					c-1.1-8.219-5.849-8.636-11.423-9.157c-0.682-10.854-0.815-21.433,0.275-30.041c1.232-9.773,5.735-22.58,11.195-35.311
					c1.706-0.218,3.631-0.73,5.858-1.792c13.338-6.361,19.888-16.807,19.888-16.807l-9.944,61.219c0,0,0.711,4.133,1.735,10.219
					C313.693,332.371,313.702,332.608,313.721,332.845z"/>
				<path style="opacity:0.25;fill:none;stroke:#FFFFFF;stroke-width:0.948;stroke-miterlimit:10;" d="M302.651,408.868
					c0,0-1.823-64.537,7.3-104.07"/>
				
					<linearGradient id="SVGID_00000077310812152697804280000002783048419570185859_" gradientUnits="userSpaceOnUse" x1="347.0846" y1="230.3909" x2="324.3447" y2="382.5728">
					<stop  offset="0" style="stop-color:#6B637C"/>
					<stop  offset="1" style="stop-color:#8A8593"/>
				</linearGradient>
				<path style="fill:url(#SVGID_00000077310812152697804280000002783048419570185859_);" d="M336.814,295.135
					c-6.73,9.129-11.271,16.021-9.802,17.262c4.398,3.716,29.737,40.383,33.795,48.488c4.048,8.115,9.119,9.973,9.119,13.347
					c0,3.384-11.319,16.39-15.376,12.333c-2.228-2.228-23.585-17.272-41.065-34.705c-14.371-14.324-26.116-30.259-22.457-41.994
					c5.65-18.135,25.737-47.9,37.35-64.689c5.053-7.309,8.503-12.162,8.456-12.522c0,0,7.745-1.043,16.021-0.853
					c9.698,0.218,20.134,2.114,19.774,9.309C372.182,249.984,350.18,276.982,336.814,295.135z"/>
				
					<linearGradient id="SVGID_00000018939394583833196760000000382279341225161111_" gradientUnits="userSpaceOnUse" x1="410.1752" y1="223.7433" x2="326.8302" y2="262.7128">
					<stop  offset="0" style="stop-color:#000000"/>
					<stop  offset="1" style="stop-color:#000000;stop-opacity:0"/>
				</linearGradient>
				<path style="opacity:0.45;fill:url(#SVGID_00000018939394583833196760000000382279341225161111_);" d="M372.627,241.111
					c-0.446,8.873-22.448,35.871-35.814,54.024c0.389-14.058,18.921-29.358,20.694-38.089c1.45-7.1,0.74-10.143-7.934-10.124
					c-2.342,0-5.271,0.227-8.892,0.663c-9.83,1.175-11.565-0.066-12.304-2.408c-0.55-1.716-0.559-4.019-2.806-6.418
					c-2.199-2.341-4.797-3.621-7.091-4.323c2.114-3.782,3.413-6,3.413-6c2.806-4.939,28.789,0,28.789,0l2.171,3.365
					C362.551,232.02,372.988,233.916,372.627,241.111z"/>
				<path style="opacity:0.25;fill:none;stroke:#FFFFFF;stroke-width:0.948;stroke-miterlimit:10;" d="M367.756,378.63
					c0,0-44.737-50.518-48.568-64.371s41.451-75.495,41.451-75.495"/>
			</g>
			<g>
				
					<linearGradient id="SVGID_00000100372488438094674030000011663576322219773324_" gradientUnits="userSpaceOnUse" x1="333.8218" y1="188.3897" x2="302.7364" y2="295.6121">
					<stop  offset="0" style="stop-color:#925BE8"/>
					<stop  offset="1" style="stop-color:#80C3FF"/>
				</linearGradient>
				<path style="fill:url(#SVGID_00000100372488438094674030000011663576322219773324_);" d="M308.374,218.975
					c0,0,1.957-6.983,17.197-2.478c15.24,4.505,20.43-2.703,16.934-9.236c-3.496-6.533-10.837-17.771-10.837-17.771
					s-6.85,10.976-8.652,12.684C321.213,203.883,308.374,218.975,308.374,218.975z"/>
				<path style="fill:#2A1F3A;" d="M328.534,192.536c0,0-0.76,10.981-3.717,19.597c-2.957,8.616-6.082,16.303-5.575,18.753
					c0.507,2.45,5.828-3.97,9.799-1.014c3.97,2.956,4.055,6.927,8.363,7.687c4.308,0.76,8.616-4.139,14.867-2.281
					c6.251,1.858,12.333,7.18,17.992,3.379c5.66-3.801-5.913-81.008-5.913-81.008l-7.433-10.474c0,0-3.717-1.858-5.406-2.196
					c-1.689-0.338-9.006,2.196-9.006,2.196s-5.185,4.899-5.692,5.913C336.306,154.101,328.534,192.536,328.534,192.536z"/>
				
					<linearGradient id="SVGID_00000146467914630831030930000004931846306757275265_" gradientUnits="userSpaceOnUse" x1="317.2791" y1="287.8367" x2="329.4423" y2="129.7143">
					<stop  offset="0" style="stop-color:#925BE8"/>
					<stop  offset="1" style="stop-color:#80C3FF"/>
				</linearGradient>
				<path style="fill:url(#SVGID_00000146467914630831030930000004931846306757275265_);" d="M348.473,144.979
					c0,0-11.309,13.688-14.523,35.311c-3.223,21.623-19.442,33.444-23.159,42.061c-3.716,8.617-3.545,10.304-3.545,10.304
					s-6.759-13.006-3.887-21.282c2.872-8.276,9.461-4.389,13.688-9.631c0.635-0.787,1.299-1.725,1.962-2.758
					c3.346-5.214,6.693-12.978,6.693-17.319v-0.01c0-0.502-0.047-0.967-0.142-1.365c-0.682-2.891-0.398-12.437,0.645-20.078
					c0.597-4.408,1.441-8.181,2.493-9.66c0.142-0.199,0.313-0.389,0.521-0.578c0.047-0.038,0.076-0.057,0.076-0.057
					C333.372,146.334,348.473,144.979,348.473,144.979z"/>
				
					<linearGradient id="SVGID_00000156547547541999940910000018066646233430119578_" gradientUnits="userSpaceOnUse" x1="305.0814" y1="286.9214" x2="317.2469" y2="128.7693">
					<stop  offset="0" style="stop-color:#925BE8"/>
					<stop  offset="1" style="stop-color:#80C3FF"/>
				</linearGradient>
				<path style="fill:url(#SVGID_00000156547547541999940910000018066646233430119578_);" d="M331.353,162.212l-2.057,14.305
					l-3.593,5.138v0.01l-1.792,2.569l-10.579,4.588l-14.238-1.612l-2.996-0.341l1.014-3.052
					c5.128-14.172,30.524-32.695,32.107-33.842c0.047-0.038,0.076-0.057,0.076-0.057l1.659,9.916L331.353,162.212z"/>
				
					<linearGradient id="SVGID_00000098911940357882163720000003219835583657142675_" gradientUnits="userSpaceOnUse" x1="288.7707" y1="211.2461" x2="347.3374" y2="156.7341">
					<stop  offset="0" style="stop-color:#000000"/>
					<stop  offset="1" style="stop-color:#000000;stop-opacity:0"/>
				</linearGradient>
				<path style="opacity:0.45;fill:url(#SVGID_00000098911940357882163720000003219835583657142675_);" d="M319.011,198.984
					c3.346-5.214,6.693-12.978,6.693-17.319l-1.792,2.569l-10.579,4.588l-14.238-1.612l2.294-4.503c0,0,17.395-16.542,24.817-22.495
					c1.251-1.014,2.228-1.716,2.778-1.991c0.626-0.303,1.327,0.313,1.972,1.611C334.159,166.26,335.904,189.428,319.011,198.984z"/>
				
					<linearGradient id="SVGID_00000080172265314094553010000007678206982691662211_" gradientUnits="userSpaceOnUse" x1="371.6274" y1="292.2185" x2="383.8467" y2="133.367">
					<stop  offset="0" style="stop-color:#925BE8"/>
					<stop  offset="1" style="stop-color:#80C3FF"/>
				</linearGradient>
				<path style="fill:url(#SVGID_00000080172265314094553010000007678206982691662211_);" d="M405.237,231.48
					c-4.399-1.858-8.617,4.901-13.859,3.545c-5.233-1.356-3.545,8.105-8.778,9.29c-5.242,1.185-7.944-2.029-10.475,4.73
					c-3.887-9.29-17.907-18.409-16.561-34.231c0.038-0.474,0.076-0.929,0.114-1.375c1.128-14.466-0.711-14.978-3.659-28.164
					c-0.076-0.332-0.142-0.664-0.208-0.995c-2.74-13.527,8.828-24.254,6.758-39.934c9.299,1.687,20.818,11.401,20.818,11.401
					s0.844,18.969,0.844,20.485c0,0.294,0.047,1.498,0.104,3.271c0.303,7.479,1.081,24.941,1.081,24.941s1.763,8.589,4.892,15.603
					c1.299,2.92,2.834,5.564,4.569,7.204C396.791,232.826,399.824,228.437,405.237,231.48z"/>
				
					<linearGradient id="SVGID_00000013902889663790824740000013506775065227313317_" gradientUnits="userSpaceOnUse" x1="417.5765" y1="172.2741" x2="325.8405" y2="222.6191">
					<stop  offset="0" style="stop-color:#000000"/>
					<stop  offset="1" style="stop-color:#000000;stop-opacity:0"/>
				</linearGradient>
				<path style="opacity:0.45;fill:url(#SVGID_00000013902889663790824740000013506775065227313317_);" d="M386.306,220.047
					c-5.669,0.645-11.868,3.441-17.395-2.427c-5.764-6.114-10.02-3.868-13.233-4.18c1.128-14.466-0.711-14.978-3.659-28.164
					c-0.076-0.332-0.142-0.664-0.208-0.995c1.28-1.83,3.109-2.872,5.612-2.645c10.987,1.014,15.264-15.338,15.264-15.338
					l7.648,13.205c0.303,7.479,1.081,24.941,1.081,24.941S383.178,213.032,386.306,220.047z"/>
				
					<linearGradient id="SVGID_00000129178900897812925140000014240849527297066407_" gradientUnits="userSpaceOnUse" x1="359.8765" y1="291.1203" x2="372.0403" y2="132.99">
					<stop  offset="0" style="stop-color:#925BE8"/>
					<stop  offset="1" style="stop-color:#80C3FF"/>
				</linearGradient>
				<path style="fill:url(#SVGID_00000129178900897812925140000014240849527297066407_);" d="M390.819,209.288
					c-4.503,8.901-15.992,5.403-22.306,0.901c-6.304-4.503-24.211-24.666-25.784-28.496c-0.455-1.1-0.18-2.455,0.493-3.849
					c1.138-2.398,3.403-4.91,5.015-6.389c0.711-0.654,1.289-1.1,1.583-1.251c1.356-0.673,3.27,3.043,5.972,4.958
					c2.702,1.915,17.907,9.015,20.609,13.404c-5.053-8.636-9.129-19.642,2.986-32.818
					C384.524,162.724,398.326,186.224,390.819,209.288z"/>
				
					<linearGradient id="SVGID_00000077295070081210766710000004344949626860521883_" gradientUnits="userSpaceOnUse" x1="304.772" y1="286.8817" x2="316.9359" y2="128.7513">
					<stop  offset="0" style="stop-color:#925BE8"/>
					<stop  offset="1" style="stop-color:#80C3FF"/>
				</linearGradient>
				<path style="fill:url(#SVGID_00000077295070081210766710000004344949626860521883_);" d="M330.225,177.304
					c0,1.574-3.716,4.844-8.332,11.518c-4.626,6.674-10.086,14.276-18.533,13.262c-8.143-0.976-10.636-6.361-6.247-18.267
					c8.361-7.46,25.13-16.457,28.448-17.518c0,0.057,0.01,0.114,0.01,0.18c0.209,2.673,2.37,6.095,3.669,8.465
					C329.818,175.986,330.225,176.83,330.225,177.304z"/>
				<path style="fill:#FFFFFF;" d="M343.14,177.015l-9.328,1.256c-0.799,0.108-1.534-0.453-1.642-1.252l-2.891-21.467
					c-0.108-0.799,0.453-1.534,1.252-1.642l9.328-1.256c0.799-0.108,1.535,0.453,1.642,1.252l2.891,21.467
					C344.5,176.172,343.939,176.908,343.14,177.015z"/>
				
					<linearGradient id="SVGID_00000039134255946297121480000004759353205141651603_" gradientUnits="userSpaceOnUse" x1="351.7836" y1="184.1404" x2="336.804" y2="162.9662">
					<stop  offset="0" style="stop-color:#FFD0C2"/>
					<stop  offset="1" style="stop-color:#F7AF9F"/>
				</linearGradient>
				<path style="fill:url(#SVGID_00000039134255946297121480000004759353205141651603_);" d="M348.236,171.455
					c-1.612,1.479-3.877,3.991-5.015,6.389c-0.578-0.825-1.223-1.801-1.886-2.901c-2.029-3.356-7.603-3.403-8.2-11.129
					c2.872,0.55,7.223-0.379,9.717,0.294C345.231,164.762,346.54,168.336,348.236,171.455z"/>
				
					<linearGradient id="SVGID_00000174570656918337866100000008115222113333979550_" gradientUnits="userSpaceOnUse" x1="343.7679" y1="160.8759" x2="314.034" y2="180.0228">
					<stop  offset="0" style="stop-color:#FFD0C2"/>
					<stop  offset="1" style="stop-color:#F7AF9F"/>
				</linearGradient>
				<path style="fill:url(#SVGID_00000174570656918337866100000008115222113333979550_);" d="M344.587,162.212
					c-0.171,5.527-2.323,8.105-6.806,9.252c-3.706,0.948-6.493,1.83-8.541,3.479c-1.299-2.37-3.46-5.792-3.669-8.465
					c2.37-2.702,3.005-4.313,6.171-3.934C334.908,162.933,342.643,163.862,344.587,162.212z"/>
				<path style="fill:#2A1F3A;" d="M332.8,158.832c0,0.334-0.271,0.605-0.605,0.605c-0.334,0-0.605-0.271-0.605-0.605
					c0-0.334,0.271-0.605,0.605-0.605C332.529,158.226,332.8,158.497,332.8,158.832z"/>
			</g>
			<g>
				
					<linearGradient id="SVGID_00000026876039455969144180000012007582103301791374_" gradientUnits="userSpaceOnUse" x1="345.1161" y1="145.5373" x2="363.8123" y2="95.4178">
					<stop  offset="0" style="stop-color:#FFD0C2"/>
					<stop  offset="1" style="stop-color:#F7AF9F"/>
				</linearGradient>
				<path style="fill:url(#SVGID_00000026876039455969144180000012007582103301791374_);" d="M367.613,127.972
					c-0.787,2.986-1.574,2.872-5.403,1.858c-0.645,2.455-1.63,4.683-3.09,6.427c0,0,0,0,0,0.01
					c-0.237,0.294-0.493,0.569-0.758,0.825c-2.332,2.294-5.678,3.46-10.399,2.645c-0.266-0.114-0.521-0.237-0.768-0.37
					c-9.138-4.778-8.124-18.589-8.124-18.589s0.085-0.569,0.256-1.441c0.531-2.683,1.943-8.2,4.579-8.712
					c3.157,9.015,16.902,15.262,19.149,14.361c0.844-0.806,1.659-1.137,2.37-1.1C367.091,123.924,368.172,125.877,367.613,127.972z"
					/>
				
					<linearGradient id="SVGID_00000101103743180392331730000018418503542861978541_" gradientUnits="userSpaceOnUse" x1="350.9194" y1="158.547" x2="355.6498" y2="128.1374">
					<stop  offset="0" style="stop-color:#FFD0C2"/>
					<stop  offset="1" style="stop-color:#F7AF9F"/>
				</linearGradient>
				<path style="fill:url(#SVGID_00000101103743180392331730000018418503542861978541_);" d="M359.166,148.372
					c0.057,2.872-4.446,7.432-9.176,7.043c-4.73-0.398-3.887-2.55-2.929-7.119c0.503-2.408,0.474-5.024,0.332-6.958
					c-0.057-0.796-0.133-1.469-0.199-1.972c0.246,0.133,0.502,0.256,0.768,0.37c4.721,0.815,8.067-0.351,10.399-2.645
					c0.266-0.256,0.521-0.531,0.758-0.825c-0.37,2.559-0.209,6.484-0.066,9.366C359.109,146.751,359.157,147.709,359.166,148.372z"
					/>
				<path style="fill:#2A1F3A;" d="M353.425,124.818c0,0.746-0.429,1.352-0.957,1.352c-0.529,0-0.957-0.605-0.957-1.352
					c0-0.746,0.429-1.352,0.957-1.352C352.997,123.466,353.425,124.071,353.425,124.818z"/>
				<path style="fill:#2A1F3A;" d="M344.851,124.818c0,0.746-0.429,1.352-0.957,1.352c-0.529,0-0.957-0.605-0.957-1.352
					c0-0.746,0.429-1.352,0.957-1.352C344.423,123.466,344.851,124.071,344.851,124.818z"/>
				<path style="fill:none;stroke:#FF9271;stroke-width:0.711;stroke-miterlimit:10;" d="M347.677,124.818
					c0,0,0.76,1.591,0.76,2.267c0,0.676-1.182,1.14-1.267,1.943c-0.085,0.802,1.563,0.929,1.563,0.929"/>
				<path style="fill:none;stroke:#F96846;stroke-width:0.711;stroke-miterlimit:10;" d="M346.569,133.49
					c0,0,3.928,2.619,8.405-1.267"/>
				
					<linearGradient id="SVGID_00000147901860130225005800000005673605555086185094_" gradientUnits="userSpaceOnUse" x1="362.4461" y1="122.36" x2="344.876" y2="160.3158">
					<stop  offset="0" style="stop-color:#000000"/>
					<stop  offset="1" style="stop-color:#000000;stop-opacity:0"/>
				</linearGradient>
				<path style="opacity:0.45;fill:url(#SVGID_00000147901860130225005800000005673605555086185094_);" d="M359.053,145.633
					c-3.403-2.92-8.579-3.934-11.66-4.294c-0.057-0.796-0.133-1.469-0.199-1.972c0.246,0.133,0.502,0.256,0.768,0.37
					c4.721,0.815,8.067-0.351,10.399-2.645c0.266-0.256,0.521-0.531,0.758-0.825C358.749,138.826,358.91,142.751,359.053,145.633z"
					/>
				
					<linearGradient id="SVGID_00000005237171115928596830000006910253144619286429_" gradientUnits="userSpaceOnUse" x1="358.666" y1="102.0549" x2="347.4314" y2="136.2656">
					<stop  offset="0" style="stop-color:#000000"/>
					<stop  offset="1" style="stop-color:#000000;stop-opacity:0"/>
				</linearGradient>
				<path style="opacity:0.45;fill:url(#SVGID_00000005237171115928596830000006910253144619286429_);" d="M365.423,123.887
					c-0.853,0.607-1.858,1.09-3.015,1.422c-11.66,3.308-19.471-9.726-19.471-9.726l-3.612,3.754c0.531-2.683,1.943-8.2,4.579-8.712
					c3.157,9.015,16.902,15.262,19.149,14.361C363.897,124.18,364.712,123.849,365.423,123.887z"/>
			</g>
		</g>
		<g>
			
				<linearGradient id="SVGID_00000084502417848158244190000009508562471337500301_" gradientUnits="userSpaceOnUse" x1="206.0592" y1="104.0286" x2="203.9673" y2="108.6187" gradientTransform="matrix(0.9747 -0.2236 0.2236 0.9747 -19.4303 205.8422)">
				<stop  offset="0" style="stop-color:#6B637C"/>
				<stop  offset="1" style="stop-color:#8A8593"/>
			</linearGradient>
			<polygon style="fill:url(#SVGID_00000084502417848158244190000009508562471337500301_);" points="206.116,261.459 
				205.734,265.009 202.233,265.813 202.605,262.265 			"/>
			<path style="fill:#2A1F3A;" d="M228.896,184.319l15.692,68.391c0.407,1.774-0.704,3.546-2.478,3.953l-107.843,24.745
				c-1.774,0.407-3.546-0.704-3.953-2.478l-15.692-68.391c-0.409-1.783,0.701-3.555,2.475-3.962l107.843-24.744
				C226.714,181.425,228.486,182.536,228.896,184.319z"/>
			<g>
				
					<linearGradient id="SVGID_00000100355855287236981340000001367286327034368918_" gradientUnits="userSpaceOnUse" x1="198.3915" y1="122.4214" x2="195.6198" y2="128.5032" gradientTransform="matrix(0.9747 -0.2236 0.2236 0.9747 -19.4303 205.8422)">
					<stop  offset="0" style="stop-color:#6B637C"/>
					<stop  offset="1" style="stop-color:#8A8593"/>
				</linearGradient>
				<path style="fill:url(#SVGID_00000100355855287236981340000001367286327034368918_);" d="M204.899,282.857
					c-0.11,1.046-0.992,2.076-1.962,2.298l-6.458,1.482l0.405-3.789l6.458-1.482C204.311,281.144,205.009,281.811,204.899,282.857z"
					/>
				<path style="fill:#2A1F3A;" d="M204.899,282.857c-0.11,1.046-0.992,2.076-1.962,2.298l-31.165,7.151l3.337-31.363l0.382-3.55
					l3.511-0.806l-0.382,3.55l-2.932,27.575l27.654-6.345C204.311,281.144,205.009,281.811,204.899,282.857z"/>
				
					<linearGradient id="SVGID_00000038395301130713825610000015313175046190180529_" gradientUnits="userSpaceOnUse" x1="174.5546" y1="128.7541" x2="217.9725" y2="73.5103" gradientTransform="matrix(0.9747 -0.2236 0.2236 0.9747 -19.4303 205.8422)">
					<stop  offset="0" style="stop-color:#6B637C"/>
					<stop  offset="1" style="stop-color:#8A8593"/>
				</linearGradient>
				<polygon style="fill:url(#SVGID_00000038395301130713825610000015313175046190180529_);" points="203.316,254.471 
					200.384,282.045 175.687,287.712 178.619,260.137 				"/>
				
					<linearGradient id="SVGID_00000147211441646596856570000004827364772824780724_" gradientUnits="userSpaceOnUse" x1="196.5294" y1="146.0245" x2="239.9487" y2="90.7789" gradientTransform="matrix(0.9747 -0.2236 0.2236 0.9747 -19.4303 205.8422)">
					<stop  offset="0" style="stop-color:#6B637C"/>
					<stop  offset="1" style="stop-color:#8A8593"/>
				</linearGradient>
				<path style="fill:url(#SVGID_00000147211441646596856570000004827364772824780724_);" d="M229.596,277.19
					c-0.11,1.047-0.983,2.074-1.953,2.296l-24.706,5.669c0.97-0.223,1.852-1.252,1.962-2.298c0.11-1.046-0.588-1.713-1.558-1.49
					l24.697-5.667C229.008,275.478,229.706,276.144,229.596,277.19z"/>
			</g>
			
				<linearGradient id="SVGID_00000055669759053662811800000016674563951334532533_" gradientUnits="userSpaceOnUse" x1="265.2516" y1="146.9668" x2="148.3492" y2="18.915" gradientTransform="matrix(0.9747 -0.2236 0.2236 0.9747 -19.4303 205.8422)">
				<stop  offset="0" style="stop-color:#6B637C"/>
				<stop  offset="1" style="stop-color:#8A8593"/>
			</linearGradient>
			<polygon style="fill:url(#SVGID_00000055669759053662811800000016674563951334532533_);" points="234.411,179.659 
				251.581,254.49 137.307,280.71 120.137,205.879 			"/>
			<path style="fill:#FFFFFF;" d="M245.895,247.826l-106.373,24.407c-0.728,0.167-1.453-0.288-1.62-1.015l-14.168-61.749
				c-0.167-0.728,0.287-1.453,1.015-1.62l106.373-24.407c0.728-0.167,1.453,0.288,1.62,1.015l14.168,61.749
				C247.077,246.934,246.622,247.659,245.895,247.826z"/>
			<path style="fill:#D6D6D6;" d="M214.592,225.657l-56.565,12.979c-1.084,0.249-2.164-0.428-2.412-1.512l0,0
				c-0.249-1.084,0.428-2.164,1.512-2.412l56.565-12.979c1.084-0.249,2.164,0.428,2.412,1.512l0,0
				C216.352,224.328,215.675,225.408,214.592,225.657z"/>
			
				<linearGradient id="SVGID_00000114768736866083525640000000080336007432576147_" gradientUnits="userSpaceOnUse" x1="117.957" y1="69.8438" x2="254.0095" y2="69.3933" gradientTransform="matrix(0.9747 -0.2236 0.2236 0.9747 -19.4303 205.8422)">
				<stop  offset="0" style="stop-color:#925BE8"/>
				<stop  offset="1" style="stop-color:#80C3FF"/>
			</linearGradient>
			<path style="fill:url(#SVGID_00000114768736866083525640000000080336007432576147_);" d="M192.746,230.669l-34.72,7.966
				c-1.084,0.249-2.164-0.428-2.412-1.512l0,0c-0.249-1.084,0.428-2.164,1.512-2.412l34.72-7.966
				c1.084-0.249,2.164,0.428,2.412,1.512l0,0C194.507,229.341,193.83,230.421,192.746,230.669z"/>
			
				<text transform="matrix(0.9747 -0.2236 0.2236 0.9747 161.0228 225.8611)" style="font-family:'Lato-Regular'; font-size:4.111px; letter-spacing:1;">TRANSFER FILE</text>
			<path style="fill:#D6D6D6;" d="M200.222,236.119l-24.7,5.667c-0.485,0.111-0.968-0.192-1.08-0.677l0,0
				c-0.111-0.485,0.192-0.968,0.677-1.08l24.7-5.667c0.485-0.111,0.968,0.192,1.08,0.677l0,0
				C201.01,235.524,200.707,236.007,200.222,236.119z"/>
			<path style="fill:#D6D6D6;" d="M201.229,240.51l-24.7,5.667c-0.485,0.111-0.968-0.192-1.08-0.677l0,0
				c-0.111-0.485,0.192-0.968,0.677-1.08l24.7-5.667c0.485-0.111,0.968,0.192,1.08,0.677l0,0
				C202.017,239.915,201.714,240.398,201.229,240.51z"/>
			<path style="fill:#D6D6D6;" d="M202.237,244.901l-24.7,5.667c-0.485,0.111-0.968-0.192-1.08-0.677l0,0
				c-0.111-0.485,0.192-0.968,0.677-1.08l24.7-5.667c0.485-0.111,0.968,0.192,1.08,0.677l0,0
				C203.025,244.306,202.722,244.789,202.237,244.901z"/>
			<path style="fill:#D6D6D6;" d="M203.244,249.292l-24.7,5.667c-0.485,0.111-0.968-0.192-1.08-0.677l0,0
				c-0.111-0.485,0.192-0.968,0.677-1.08l24.7-5.667c0.485-0.111,0.968,0.192,1.08,0.677l0,0
				C204.032,248.697,203.729,249.18,203.244,249.292z"/>
			
				<linearGradient id="SVGID_00000103962599796322368750000004827097456339820945_" gradientUnits="userSpaceOnUse" x1="189.5822" y1="47.65" x2="199.7092" y2="47.65" gradientTransform="matrix(0.9747 -0.2236 0.2236 0.9747 -19.4303 205.8422)">
				<stop  offset="0" style="stop-color:#925BE8"/>
				<stop  offset="1" style="stop-color:#80C3FF"/>
			</linearGradient>
			
				<path style="fill:none;stroke:url(#SVGID_00000103962599796322368750000004827097456339820945_);stroke-width:0.948;stroke-miterlimit:10;" d="
				M185.419,207.738c0.567,2.47-0.976,4.933-3.447,5.5c-2.471,0.567-4.933-0.976-5.5-3.447c-0.567-2.471,0.976-4.933,3.447-5.5"/>
			<path style="fill:none;stroke:#D6D6D6;stroke-width:0.948;stroke-miterlimit:10;" d="M179.919,204.29
				c2.471-0.567,4.933,0.976,5.5,3.447"/>
		</g>
		<g>
			<polygon style="fill:#E06746;" points="181.859,176.659 142.947,190.264 122.807,157.954 161.719,144.349 			"/>
			
				<rect x="134.468" y="134.36" transform="matrix(0.944 -0.33 0.33 0.944 -44.1246 59.5771)" style="fill:#FFFFFF;" width="37.843" height="50.746"/>
			
				<rect x="137.182" y="145.172" transform="matrix(0.944 -0.33 0.33 0.944 -39.7088 57.1385)" style="fill:#C1C1C1;" width="22.469" height="0.676"/>
			
				<rect x="138.269" y="148.282" transform="matrix(0.944 -0.33 0.33 0.944 -40.6743 57.6716)" style="fill:#C1C1C1;" width="22.469" height="0.676"/>
			
				<rect x="139.356" y="151.392" transform="matrix(0.944 -0.3301 0.3301 0.944 -41.6399 58.2051)" style="fill:#C1C1C1;" width="22.469" height="0.676"/>
			
				<rect x="140.444" y="154.502" transform="matrix(0.944 -0.3301 0.3301 0.944 -42.6057 58.739)" style="fill:#C1C1C1;" width="22.469" height="0.676"/>
			
				<rect x="141.531" y="157.611" transform="matrix(0.944 -0.3301 0.3301 0.944 -43.571 59.2719)" style="fill:#C1C1C1;" width="22.469" height="0.676"/>
			
				<rect x="142.618" y="160.721" transform="matrix(0.944 -0.33 0.33 0.944 -44.5361 59.8042)" style="fill:#C1C1C1;" width="22.469" height="0.676"/>
			
				<rect x="143.706" y="163.831" transform="matrix(0.944 -0.33 0.33 0.944 -45.5015 60.3373)" style="fill:#C1C1C1;" width="22.469" height="0.676"/>
			
				<rect x="144.793" y="166.941" transform="matrix(0.944 -0.3301 0.3301 0.944 -46.4674 60.8713)" style="fill:#C1C1C1;" width="22.469" height="0.676"/>
			
				<rect x="145.88" y="170.051" transform="matrix(0.944 -0.3301 0.3301 0.944 -47.4329 61.4044)" style="fill:#C1C1C1;" width="22.469" height="0.676"/>
			
				<rect x="146.968" y="173.16" transform="matrix(0.944 -0.3301 0.3301 0.944 -48.398 61.937)" style="fill:#C1C1C1;" width="22.469" height="0.676"/>
			
				<rect x="148.055" y="176.27" transform="matrix(0.944 -0.3301 0.3301 0.944 -49.3635 62.4701)" style="fill:#C1C1C1;" width="22.469" height="0.676"/>
			
				<rect x="140.497" y="149.637" transform="matrix(0.944 -0.3301 0.3301 0.944 -45.8535 62.4918)" style="fill:#FFB469;" width="41.222" height="33.289"/>
		</g>
		<g>
			<g>
				<g>
					
						<linearGradient id="SVGID_00000108997579983106682080000014133873531791522229_" gradientUnits="userSpaceOnUse" x1="218.0664" y1="181.1267" x2="207.5918" y2="35.1601">
						<stop  offset="0" style="stop-color:#925BE8"/>
						<stop  offset="1" style="stop-color:#80C3FF"/>
					</linearGradient>
					<path style="fill:url(#SVGID_00000108997579983106682080000014133873531791522229_);" d="M221.362,50.919l16.057,40.011
						l-35.12,14.094L183.4,57.931l28.038-11.252c0.22-0.088,0.443-0.168,0.67-0.238c3.614-1.073,7.508,0.664,9.097,4.112
						C221.264,50.672,221.313,50.795,221.362,50.919z"/>
					
						<rect x="193.563" y="60.107" transform="matrix(0.9281 -0.3724 0.3724 0.9281 -7.7783 80.6223)" style="fill:#FFFFFF;" width="22.469" height="0.676"/>
					
						<rect x="194.79" y="63.164" transform="matrix(0.9281 -0.3724 0.3724 0.9281 -8.8287 81.2992)" style="fill:#FFFFFF;" width="22.469" height="0.676"/>
					
						<rect x="196.017" y="66.222" transform="matrix(0.9281 -0.3724 0.3724 0.9281 -9.879 81.9771)" style="opacity:0.25;fill:#FFFFFF;" width="22.469" height="0.676"/>
					
						<rect x="197.243" y="69.279" transform="matrix(0.9281 -0.3724 0.3724 0.9281 -10.9295 82.6531)" style="opacity:0.25;fill:#FFFFFF;" width="22.469" height="0.676"/>
					
						<rect x="198.47" y="72.336" transform="matrix(0.9281 -0.3724 0.3724 0.9281 -11.9799 83.33)" style="opacity:0.25;fill:#FFFFFF;" width="22.469" height="0.676"/>
					
						<rect x="199.697" y="75.394" transform="matrix(0.9281 -0.3724 0.3724 0.9281 -13.0303 84.0069)" style="opacity:0.25;fill:#FFFFFF;" width="22.469" height="0.676"/>
					
						<rect x="200.924" y="78.451" transform="matrix(0.9281 -0.3724 0.3724 0.9281 -14.0807 84.6838)" style="opacity:0.25;fill:#FFFFFF;" width="22.469" height="0.676"/>
					
						<rect x="202.151" y="81.509" transform="matrix(0.9281 -0.3724 0.3724 0.9281 -15.1311 85.3607)" style="opacity:0.25;fill:#FFFFFF;" width="22.469" height="0.676"/>
					
						<rect x="203.378" y="84.566" transform="matrix(0.9281 -0.3724 0.3724 0.9281 -16.1815 86.038)" style="fill:#2A1F3A;" width="22.469" height="0.676"/>
					
						<rect x="204.605" y="87.623" transform="matrix(0.9281 -0.3724 0.3724 0.9281 -17.2319 86.7145)" style="opacity:0.25;fill:#FFFFFF;" width="22.469" height="0.676"/>
					
						<rect x="205.832" y="90.681" transform="matrix(0.9281 -0.3724 0.3724 0.9281 -18.2824 87.3919)" style="opacity:0.25;fill:#FFFFFF;" width="22.469" height="0.676"/>
				</g>
				
					<linearGradient id="SVGID_00000155113400879738232700000010275796387486146236_" gradientUnits="userSpaceOnUse" x1="222.2665" y1="16.7783" x2="208.5822" y2="94.1539">
					<stop  offset="0" style="stop-color:#925BE8"/>
					<stop  offset="1" style="stop-color:#80C3FF"/>
				</linearGradient>
				<path style="fill:url(#SVGID_00000155113400879738232700000010275796387486146236_);" d="M221.205,50.553l-6.413,2.574
					l-2.683-6.686C215.723,45.368,219.617,47.104,221.205,50.553z"/>
			</g>
			<g>
				<g>
					
						<linearGradient id="SVGID_00000178172109391018116520000006074533468145860503_" gradientUnits="userSpaceOnUse" x1="559.4072" y1="660.0721" x2="548.9333" y2="514.1145" gradientTransform="matrix(0.7155 0.6987 -0.6987 0.7155 290.8977 -703.5473)">
						<stop  offset="0" style="stop-color:#925BE8"/>
						<stop  offset="1" style="stop-color:#80C3FF"/>
					</linearGradient>
					<path style="fill:url(#SVGID_00000178172109391018116520000006074533468145860503_);" d="M323.29,68.737l-16.466,39.844
						L271.85,94.128l19.381-46.897l27.921,11.539c0.219,0.091,0.434,0.19,0.646,0.298c3.335,1.758,4.908,5.721,3.635,9.298
						C323.392,68.492,323.341,68.614,323.29,68.737z"/>
					
						<rect x="293.548" y="63.641" transform="matrix(0.9242 0.3819 -0.3819 0.9242 47.542 -111.5575)" style="fill:#FFFFFF;" width="22.469" height="0.676"/>
					
						<rect x="292.29" y="66.686" transform="matrix(0.9242 0.3819 -0.3819 0.9242 48.6098 -110.8465)" style="fill:#FFFFFF;" width="22.469" height="0.676"/>
					
						<rect x="291.032" y="69.73" transform="matrix(0.9242 0.3819 -0.3819 0.9242 49.6762 -110.1337)" style="opacity:0.25;fill:#FFFFFF;" width="22.469" height="0.676"/>
					
						<rect x="289.774" y="72.775" transform="matrix(0.9242 0.3819 -0.3819 0.9242 50.7447 -109.4237)" style="opacity:0.25;fill:#FFFFFF;" width="22.469" height="0.676"/>
					
						<rect x="288.516" y="75.82" transform="matrix(0.9242 0.3819 -0.3819 0.9242 51.8122 -108.7123)" style="opacity:0.25;fill:#FFFFFF;" width="22.469" height="0.676"/>
					
						<rect x="287.257" y="78.864" transform="matrix(0.9242 0.3819 -0.3819 0.9242 52.8786 -107.9995)" style="opacity:0.25;fill:#FFFFFF;" width="22.469" height="0.676"/>
					
						<rect x="285.999" y="81.909" transform="matrix(0.9242 0.3819 -0.3819 0.9242 53.9471 -107.2896)" style="opacity:0.25;fill:#FFFFFF;" width="22.469" height="0.676"/>
					
						<rect x="284.741" y="84.954" transform="matrix(0.9242 0.3819 -0.3819 0.9242 55.0143 -106.5778)" style="opacity:0.25;fill:#FFFFFF;" width="22.469" height="0.676"/>
					
						<rect x="283.483" y="87.998" transform="matrix(0.9242 0.3819 -0.3819 0.9242 56.0821 -105.8668)" style="opacity:0.25;fill:#FFFFFF;" width="22.469" height="0.676"/>
					
						<rect x="282.224" y="91.043" transform="matrix(0.9242 0.3819 -0.3819 0.9242 57.1492 -105.155)" style="opacity:0.25;fill:#FFFFFF;" width="22.469" height="0.676"/>
					
						<rect x="280.966" y="94.088" transform="matrix(0.9242 0.3819 -0.3819 0.9242 58.217 -104.444)" style="opacity:0.25;fill:#FFFFFF;" width="22.469" height="0.676"/>
				</g>
				
					<linearGradient id="SVGID_00000023996566669884655060000011027801792612169878_" gradientUnits="userSpaceOnUse" x1="563.6073" y1="495.7335" x2="549.9236" y2="573.1053" gradientTransform="matrix(0.7155 0.6987 -0.6987 0.7155 290.8977 -703.5473)">
					<stop  offset="0" style="stop-color:#925BE8"/>
					<stop  offset="1" style="stop-color:#80C3FF"/>
				</linearGradient>
				<path style="fill:url(#SVGID_00000023996566669884655060000011027801792612169878_);" d="M323.434,68.365l-6.387-2.639
					l2.752-6.658C323.134,60.825,324.707,64.788,323.434,68.365z"/>
			</g>
		</g>
		<g>
			<g>
				
					<linearGradient id="SVGID_00000158712898592335040120000013227131946173320848_" gradientUnits="userSpaceOnUse" x1="197.2923" y1="180.8019" x2="322.3675" y2="180.8019">
					<stop  offset="0" style="stop-color:#6B637C"/>
					<stop  offset="1" style="stop-color:#8A8593"/>
				</linearGradient>
				
					<path style="fill:none;stroke:url(#SVGID_00000158712898592335040120000013227131946173320848_);stroke-width:0.948;stroke-linecap:round;stroke-linejoin:round;" d="
					M197.773,181.748c0,0-0.018-0.674,0.007-1.892"/>
				
					<linearGradient id="SVGID_00000139295166103708448060000003219322504360537734_" gradientUnits="userSpaceOnUse" x1="197.2923" y1="141.9281" x2="322.3664" y2="141.9281">
					<stop  offset="0" style="stop-color:#6B637C"/>
					<stop  offset="1" style="stop-color:#8A8593"/>
				</linearGradient>
				
					<path style="fill:none;stroke:url(#SVGID_00000139295166103708448060000003219322504360537734_);stroke-width:0.948;stroke-linecap:round;stroke-linejoin:round;stroke-dasharray:3.8015,3.8015;" d="
					M197.946,176.06c0.929-14.318,6.539-51.579,39.474-63.857c38.606-14.392,71.226,9.596,82.551,26.971"/>
				
					<linearGradient id="SVGID_00000070114087269579002530000012604503303562431135_" gradientUnits="userSpaceOnUse" x1="197.299" y1="141.6177" x2="322.3667" y2="141.6177">
					<stop  offset="0" style="stop-color:#6B637C"/>
					<stop  offset="1" style="stop-color:#8A8593"/>
				</linearGradient>
				
					<path style="fill:none;stroke:url(#SVGID_00000070114087269579002530000012604503303562431135_);stroke-width:0.948;stroke-linecap:round;stroke-linejoin:round;" d="
					M320.974,140.791c0.33,0.56,0.637,1.112,0.919,1.653"/>
			</g>
		</g>
	</g>
</g>
<g id="DESIGNED_BY_FREEPIK">
	<g>
		<g id="XMLID_319_">
			<g id="XMLID_338_">
				<path id="XMLID_346_" style="fill:#1D262D;" d="M260.104,465.465c-0.432,0.443-0.803,0.931-1.108,1.453l-0.465-0.241
					c-0.067-0.298-0.349-0.503-0.659-0.466c-0.331,0.039-0.568,0.339-0.529,0.67c0.039,0.331,0.339,0.568,0.67,0.529
					c0.066-0.008,0.127-0.026,0.184-0.052l0.451,0.234c-0.251,0.554-0.433,1.139-0.539,1.744l0.747,0.132
					c0.23-1.306,0.85-2.507,1.792-3.473L260.104,465.465z"/>
				<path id="XMLID_345_" style="fill:#1D262D;" d="M265.592,463.163c-0.171,0-0.341,0.006-0.51,0.017l-0.074-0.626
					c0.188-0.149,0.296-0.389,0.266-0.645c-0.046-0.393-0.402-0.674-0.795-0.628c-0.393,0.046-0.674,0.402-0.628,0.795
					c0.03,0.254,0.189,0.461,0.404,0.564l0.074,0.624c-0.714,0.116-1.403,0.332-2.06,0.646l0.327,0.684
					c0.934-0.447,1.942-0.673,2.995-0.673c0.496,0,0.993,0.053,1.475,0.158l0.161-0.741
					C266.692,463.222,266.142,463.163,265.592,463.163z"/>
				<path id="XMLID_344_" style="fill:#1D262D;" d="M272.194,465.711c0.331-0.04,0.566-0.341,0.526-0.672
					c-0.04-0.331-0.341-0.566-0.672-0.526c-0.309,0.038-0.535,0.304-0.53,0.609l-0.416,0.363c-0.418-0.43-0.889-0.813-1.408-1.139
					l-0.404,0.641c1.134,0.715,2.021,1.726,2.563,2.925l0.69-0.313c-0.251-0.554-0.567-1.072-0.942-1.545l0.402-0.351
					C272.065,465.716,272.129,465.719,272.194,465.711z"/>
				<path id="XMLID_343_" style="fill:#1D262D;" d="M265.044,473.372c-0.386,0.023-0.775,0.035-1.157,0.035
					c-0.88,0-1.733-0.061-2.478-0.179c-0.39-0.062-0.846-0.155-1.27-0.292c1.046,1.861,3.069,3.125,5.388,3.125
					c2.855,0,5.262-1.916,5.95-4.504c-0.682,0.449-1.505,0.825-2.459,1.123C267.839,473.047,266.463,473.286,265.044,473.372z"/>
				<path id="XMLID_339_" style="fill:#1D262D;" d="M265.592,464.68c-3.352,0-6.08,2.666-6.08,5.943
					c0,0.426,0.046,0.849,0.137,1.261c0.673,0.483,2.706,0.89,5.348,0.731c2.879-0.173,5.297-0.957,6.672-2.159
					c-0.006-0.195-0.021-0.39-0.045-0.582C271.244,466.913,268.65,464.68,265.592,464.68z M263.432,471.194
					c-1.02,0-1.85-0.83-1.85-1.85c0-1.02,0.83-1.85,1.85-1.85c1.02,0,1.85,0.83,1.85,1.85
					C265.282,470.365,264.452,471.194,263.432,471.194z M268.17,470.286c-0.75,0-1.36-0.61-1.36-1.36s0.61-1.361,1.36-1.361
					c0.75,0,1.361,0.61,1.361,1.361S268.92,470.286,268.17,470.286z"/>
			</g>
			<path id="XMLID_336_" style="fill:#1D262D;" d="M281.595,466.547c-0.295-0.116-0.805-0.309-1.382-0.237
				c-0.551,0.069-0.844,0.341-0.844,1.007v0.866h2.228v1.717h-2.228v5.455h-1.932v-5.455h-1.34v-1.717h1.34v-0.888
				c0-1.68,0.896-2.783,2.568-2.783c0.643,0,1.157,0.122,1.59,0.308L281.595,466.547z"/>
			<path id="XMLID_334_" style="fill:#1D262D;" d="M286.298,469.879c-0.177-0.03-0.358-0.046-0.526-0.046
				c-0.896,0-1.51,0.548-1.51,1.614v3.908h-1.932v-7.172h1.873v0.785c0.451-0.673,1.14-0.977,2.021-0.977
				c0.414,0,0.848,0.128,1.094,0.337L286.298,469.879z"/>
			<path id="XMLID_331_" style="fill:#1D262D;" d="M293.965,471.757c0,0.222-0.015,0.489-0.037,0.651h-5.085
				c0.207,1.036,0.933,1.488,1.843,1.488c0.622,0,1.295-0.252,1.813-0.688l1.133,1.243c-0.814,0.748-1.85,1.088-3.057,1.088
				c-2.198,0-3.723-1.495-3.723-3.753c0-2.258,1.48-3.797,3.627-3.797C292.544,467.99,293.958,469.522,293.965,471.757z
				 M288.851,471.091h3.175c-0.177-0.918-0.733-1.436-1.562-1.436C289.554,469.655,289.021,470.203,288.851,471.091z"/>
			<path id="XMLID_328_" style="fill:#1D262D;" d="M301.618,471.757c0,0.222-0.015,0.489-0.037,0.651h-5.085
				c0.207,1.036,0.932,1.488,1.843,1.488c0.622,0,1.295-0.252,1.814-0.688l1.132,1.243c-0.814,0.748-1.85,1.088-3.057,1.088
				c-2.198,0-3.723-1.495-3.723-3.753c0-2.258,1.48-3.797,3.627-3.797C300.197,467.99,301.611,469.522,301.618,471.757z
				 M296.504,471.091h3.175c-0.178-0.918-0.733-1.436-1.562-1.436C297.207,469.655,296.674,470.203,296.504,471.091z"/>
			<path id="XMLID_325_" style="fill:#1D262D;" d="M309.964,471.764c0,2.154-1.495,3.775-3.471,3.775
				c-0.962,0-1.643-0.378-2.109-0.933v3.708h-1.924v-10.133h1.887v0.792c0.466-0.585,1.155-0.984,2.139-0.984
				C308.469,467.99,309.964,469.61,309.964,471.764z M304.287,471.764c0,1.132,0.747,1.976,1.843,1.976
				c1.14,0,1.85-0.881,1.85-1.976c0-1.095-0.71-1.976-1.85-1.976C305.035,469.788,304.287,470.632,304.287,471.764z"/>
			<path id="XMLID_322_" style="fill:#1D262D;" d="M313.068,465.836c0,0.696-0.54,1.229-1.236,1.229
				c-0.696,0-1.229-0.533-1.229-1.229c0-0.696,0.533-1.243,1.229-1.243C312.527,464.592,313.068,465.14,313.068,465.836z
				 M312.809,475.354h-1.932v-7.172h1.932V475.354z"/>
			<path id="XMLID_320_" style="fill:#1D262D;" d="M316.032,470.736l2.701-2.554h2.368l-3.479,3.375l3.501,3.797h-2.376
				l-2.716-2.901v2.901H314.1v-10.658h1.932V470.736z"/>
		</g>
		<g>
			<path style="fill:#1D262D;" d="M184.412,475.289v-1.055c-0.527,0.718-1.391,1.23-2.388,1.23c-1.846,0-3.149-1.406-3.149-3.706
				c0-2.256,1.289-3.721,3.149-3.721c0.952,0,1.816,0.469,2.388,1.245v-3.765h1.099v9.77H184.412z M184.412,473.37v-3.208
				c-0.395-0.615-1.245-1.143-2.124-1.143c-1.421,0-2.27,1.172-2.27,2.739c0,1.567,0.85,2.724,2.27,2.724
				C183.168,474.483,184.017,473.986,184.412,473.37z"/>
			<path style="fill:#1D262D;" d="M186.932,471.744c0-2.051,1.465-3.706,3.486-3.706c2.139,0,3.398,1.67,3.398,3.794v0.279h-5.727
				c0.088,1.333,1.025,2.446,2.549,2.446c0.805,0,1.626-0.322,2.182-0.894l0.527,0.718c-0.703,0.703-1.655,1.084-2.812,1.084
				C188.44,475.465,186.932,473.956,186.932,471.744z M190.403,468.947c-1.509,0-2.256,1.274-2.314,2.358h4.643
				C192.718,470.25,192.015,468.947,190.403,468.947z"/>
			<path style="fill:#1D262D;" d="M194.607,474.351l0.571-0.791c0.469,0.542,1.362,1.011,2.329,1.011c1.084,0,1.67-0.513,1.67-1.216
				c0-1.714-4.38-0.659-4.38-3.281c0-1.098,0.952-2.036,2.636-2.036c1.201,0,2.051,0.454,2.622,1.026l-0.513,0.762
				c-0.424-0.513-1.201-0.894-2.109-0.894c-0.967,0-1.567,0.483-1.567,1.113c0,1.552,4.38,0.527,4.38,3.281
				c0,1.187-0.952,2.138-2.783,2.138C196.306,475.465,195.325,475.113,194.607,474.351z"/>
			<path style="fill:#1D262D;" d="M201.477,466.471c0-0.41,0.337-0.747,0.732-0.747c0.41,0,0.747,0.337,0.747,0.747
				c0,0.41-0.337,0.732-0.747,0.732C201.814,467.203,201.477,466.881,201.477,466.471z M201.667,475.289v-7.075h1.099v7.075H201.667
				z"/>
			<path style="fill:#1D262D;" d="M204.582,477.105l0.556-0.82c0.586,0.703,1.289,0.967,2.3,0.967c1.172,0,2.27-0.571,2.27-2.124
				v-1.011c-0.513,0.718-1.377,1.26-2.373,1.26c-1.845,0-3.149-1.377-3.149-3.662c0-2.27,1.289-3.677,3.149-3.677
				c0.952,0,1.802,0.469,2.373,1.245v-1.069h1.098v6.87c0,2.344-1.641,3.076-3.369,3.076
				C206.237,478.16,205.417,477.926,204.582,477.105z M209.709,473.253v-3.091c-0.381-0.615-1.23-1.143-2.109-1.143
				c-1.421,0-2.27,1.128-2.27,2.695c0,1.553,0.849,2.695,2.27,2.695C208.478,474.41,209.328,473.868,209.709,473.253z"/>
			<path style="fill:#1D262D;" d="M217.413,475.289v-4.629c0-1.245-0.63-1.641-1.582-1.641c-0.865,0-1.685,0.527-2.095,1.099v5.17
				h-1.099v-7.075h1.099v1.025c0.498-0.586,1.465-1.201,2.519-1.201c1.48,0,2.256,0.747,2.256,2.285v4.966H217.413z"/>
			<path style="fill:#1D262D;" d="M219.932,471.744c0-2.051,1.465-3.706,3.486-3.706c2.139,0,3.398,1.67,3.398,3.794v0.279h-5.727
				c0.088,1.333,1.025,2.446,2.549,2.446c0.806,0,1.626-0.322,2.183-0.894l0.527,0.718c-0.703,0.703-1.655,1.084-2.812,1.084
				C221.441,475.465,219.932,473.956,219.932,471.744z M223.404,468.947c-1.509,0-2.256,1.274-2.314,2.358h4.643
				C225.718,470.25,225.015,468.947,223.404,468.947z"/>
			<path style="fill:#1D262D;" d="M233.35,475.289v-1.055c-0.527,0.718-1.392,1.23-2.388,1.23c-1.846,0-3.149-1.406-3.149-3.706
				c0-2.256,1.289-3.721,3.149-3.721c0.952,0,1.817,0.469,2.388,1.245v-3.765h1.098v9.77H233.35z M233.35,473.37v-3.208
				c-0.396-0.615-1.245-1.143-2.124-1.143c-1.421,0-2.27,1.172-2.27,2.739c0,1.567,0.849,2.724,2.27,2.724
				C232.105,474.483,232.954,473.986,233.35,473.37z"/>
			<path style="fill:#1D262D;" d="M239.692,475.289v-9.77h1.098v3.765c0.572-0.776,1.421-1.245,2.388-1.245
				c1.845,0,3.149,1.465,3.149,3.721c0,2.299-1.304,3.706-3.149,3.706c-0.996,0-1.86-0.513-2.388-1.23v1.055H239.692z
				 M242.9,474.483c1.436,0,2.285-1.157,2.285-2.724c0-1.568-0.85-2.739-2.285-2.739c-0.864,0-1.728,0.527-2.109,1.143v3.208
				C241.171,473.986,242.036,474.483,242.9,474.483z"/>
			<path style="fill:#1D262D;" d="M247.528,477.061c0.161,0.073,0.425,0.117,0.601,0.117c0.483,0,0.805-0.161,1.055-0.747
				l0.469-1.069l-2.959-7.148h1.187l2.358,5.8l2.344-5.8h1.201l-3.545,8.51c-0.425,1.025-1.143,1.421-2.08,1.435
				c-0.234,0-0.601-0.044-0.805-0.103L247.528,477.061z"/>
		</g>
	</g>
</g>
</svg>
